<svg xmlns="http://www.w3.org/2000/svg" xmlns:xlink="http://www.w3.org/1999/xlink" width="500" zoomAndPan="magnify" viewBox="0 0 375 374.999991" height="500" preserveAspectRatio="xMidYMid meet" version="1.0"><defs><g/><clipPath id="1432e95ac7"><path d="M 164.703125 108.222656 L 265.65625 108.222656 L 265.65625 179.78125 L 164.703125 179.78125 Z M 164.703125 108.222656 " clip-rule="nonzero"/></clipPath><clipPath id="e76b9ce7c6"><path d="M 164.703125 121.207031 L 244 121.207031 L 244 187.492188 L 164.703125 187.492188 Z M 164.703125 121.207031 " clip-rule="nonzero"/></clipPath></defs><g fill="#41b331" fill-opacity="1"><g transform="translate(35.989331, 231.937173)"><g><path d="M 38.03125 -96.5 C 45.5 -96.5 52.3125 -94.546875 58.46875 -90.640625 C 61.070312 -92.410156 63.796875 -93.828125 66.640625 -94.890625 C 69.484375 -95.960938 72.503906 -96.5 75.703125 -96.5 C 79.378906 -96.5 82.9375 -95.757812 86.375 -94.28125 C 89.8125 -92.800781 92.890625 -90.875 95.609375 -88.5 L 89.921875 -73.75 C 87.671875 -77.070312 85.0625 -80.242188 82.09375 -83.265625 C 79.132812 -86.285156 75.90625 -88.445312 72.40625 -89.75 C 68.914062 -91.050781 65.21875 -90.632812 61.3125 -88.5 C 65.8125 -85.0625 69.363281 -80.734375 71.96875 -75.515625 C 74.582031 -70.304688 75.890625 -64.679688 75.890625 -58.640625 C 75.890625 -51.648438 74.195312 -45.28125 70.8125 -39.53125 C 67.4375 -33.789062 62.875 -29.234375 57.125 -25.859375 C 51.382812 -22.484375 45.019531 -20.796875 38.03125 -20.796875 C 33.769531 -20.796875 29.679688 -21.472656 25.765625 -22.828125 C 21.859375 -24.191406 18.304688 -26.0625 15.109375 -28.4375 C 14.160156 -27.957031 13.238281 -27.507812 12.34375 -27.09375 C 11.457031 -26.6875 10.660156 -26.1875 9.953125 -25.59375 C 7.578125 -23.9375 6.035156 -21.976562 5.328125 -19.71875 C 4.617188 -17.46875 4.914062 -15.515625 6.21875 -13.859375 C 8 -11.609375 10.546875 -10.394531 13.859375 -10.21875 C 17.179688 -10.039062 21.03125 -10.515625 25.40625 -11.640625 C 29.789062 -12.765625 34.441406 -14.15625 39.359375 -15.8125 C 44.273438 -17.476562 49.25 -19.109375 54.28125 -20.703125 C 59.320312 -22.304688 64.15625 -23.460938 68.78125 -24.171875 C 75.414062 -25.234375 81.21875 -24.757812 86.1875 -22.75 C 91.164062 -20.738281 95.078125 -17.742188 97.921875 -13.765625 C 100.765625 -9.796875 102.332031 -5.382812 102.625 -0.53125 C 102.925781 4.320312 101.710938 9.0625 98.984375 13.6875 C 96.265625 18.425781 92.445312 22.304688 87.53125 25.328125 C 82.613281 28.347656 77.132812 30.6875 71.09375 32.34375 C 65.050781 34 59.003906 35.148438 52.953125 35.796875 C 46.910156 36.453125 41.460938 36.78125 36.609375 36.78125 C 33.410156 36.78125 29.765625 36.515625 25.671875 35.984375 C 21.585938 35.453125 17.5 34.5625 13.40625 33.3125 C 9.320312 32.070312 5.648438 30.351562 2.390625 28.15625 C -0.859375 25.96875 -3.195312 23.21875 -4.625 19.90625 C -5.925781 16.820312 -6.304688 13.382812 -5.765625 9.59375 C -5.234375 5.800781 -3.488281 2.957031 -0.53125 1.0625 L 0.171875 2.125 C -1.484375 3.90625 -1.660156 5.742188 -0.359375 7.640625 C 0.941406 9.535156 2.304688 11.078125 3.734375 12.265625 C 7.523438 15.578125 12.351562 17.914062 18.21875 19.28125 C 24.082031 20.644531 30.390625 21.328125 37.140625 21.328125 C 43.890625 21.328125 50.613281 20.765625 57.3125 19.640625 C 64.007812 18.515625 70.113281 17.003906 75.625 15.109375 C 81.132812 13.210938 85.546875 11.195312 88.859375 9.0625 C 93.242188 6.21875 96.113281 3.195312 97.46875 0 C 98.832031 -3.195312 98.773438 -6.007812 97.296875 -8.4375 C 95.816406 -10.863281 93.03125 -12.460938 88.9375 -13.234375 C 84.851562 -14.003906 79.554688 -13.382812 73.046875 -11.375 C 68.179688 -9.945312 63.050781 -8.046875 57.65625 -5.671875 C 52.269531 -3.304688 46.820312 -1.179688 41.3125 0.703125 C 35.8125 2.597656 30.394531 3.664062 25.0625 3.90625 C 21.144531 3.90625 17.171875 3.28125 13.140625 2.03125 C 9.117188 0.789062 5.832031 -1.25 3.28125 -4.09375 C 0.738281 -6.9375 -0.296875 -10.726562 0.171875 -15.46875 C 0.523438 -19.257812 1.882812 -22.367188 4.25 -24.796875 C 6.625 -27.222656 9.351562 -29.207031 12.4375 -30.75 C 8.769531 -34.1875 5.804688 -38.332031 3.546875 -43.1875 C 1.296875 -48.039062 0.171875 -53.191406 0.171875 -58.640625 C 0.171875 -65.628906 1.859375 -72 5.234375 -77.75 C 8.617188 -83.5 13.179688 -88.0625 18.921875 -91.4375 C 24.671875 -94.8125 31.039062 -96.5 38.03125 -96.5 Z M 26.65625 -91.34375 C 22.863281 -90.039062 19.898438 -87.375 17.765625 -83.34375 C 15.640625 -79.320312 14.515625 -74.492188 14.390625 -68.859375 C 14.273438 -63.234375 15.285156 -57.398438 17.421875 -51.359375 C 19.546875 -45.316406 22.382812 -40.132812 25.9375 -35.8125 C 29.5 -31.488281 33.351562 -28.4375 37.5 -26.65625 C 41.644531 -24.875 45.613281 -24.640625 49.40625 -25.953125 C 53.3125 -27.253906 56.300781 -29.914062 58.375 -33.9375 C 60.445312 -37.96875 61.570312 -42.796875 61.75 -48.421875 C 61.9375 -54.054688 60.960938 -59.894531 58.828125 -65.9375 C 56.691406 -71.976562 53.816406 -77.128906 50.203125 -81.390625 C 46.585938 -85.660156 42.707031 -88.742188 38.5625 -90.640625 C 34.414062 -92.535156 30.445312 -92.769531 26.65625 -91.34375 Z M 26.65625 -91.34375 "/></g></g></g><g fill="#41b331" fill-opacity="1"><g transform="translate(143.149902, 231.937173)"><g><path d="M 27.375 -25.0625 C 27.375 -15.695312 28.320312 -9.414062 30.21875 -6.21875 C 32.113281 -3.019531 34.957031 -1.476562 38.75 -1.59375 L 38.75 0 L 0 0 L 0 -1.59375 C 3.789062 -1.476562 6.632812 -3.019531 8.53125 -6.21875 C 10.425781 -9.414062 11.375 -15.695312 11.375 -25.0625 L 11.375 -59.53125 C 11.375 -69.007812 10.425781 -75.378906 8.53125 -78.640625 C 6.632812 -81.898438 3.789062 -83.410156 0 -83.171875 L 0 -84.765625 C 5.207031 -84.765625 10.476562 -85.859375 15.8125 -88.046875 C 21.144531 -90.242188 25 -93.0625 27.375 -96.5 L 27.375 -75.359375 C 29.851562 -78.910156 32.691406 -82.3125 35.890625 -85.5625 C 39.097656 -88.820312 42.65625 -91.457031 46.5625 -93.46875 C 50.46875 -95.488281 54.675781 -96.5 59.1875 -96.5 C 62.851562 -96.5 66.40625 -95.757812 69.84375 -94.28125 C 73.28125 -92.800781 76.359375 -90.875 79.078125 -88.5 L 73.390625 -73.578125 C 71.617188 -76.296875 69.546875 -78.988281 67.171875 -81.65625 C 64.804688 -84.320312 62.257812 -86.453125 59.53125 -88.046875 C 56.8125 -89.648438 53.910156 -90.394531 50.828125 -90.28125 C 47.742188 -90.164062 44.546875 -88.742188 41.234375 -86.015625 C 38.390625 -83.765625 35.78125 -81.097656 33.40625 -78.015625 C 31.039062 -74.929688 29.03125 -72.085938 27.375 -69.484375 Z M 27.375 -25.0625 "/></g></g></g><g fill="#41b331" fill-opacity="1"><g transform="translate(232.71695, 231.937173)"><g><path d="M 50.65625 -96.5 C 44.019531 -96.5 37.769531 -95.253906 31.90625 -92.765625 C 26.039062 -90.273438 20.914062 -86.804688 16.53125 -82.359375 C 12.144531 -77.921875 8.707031 -72.769531 6.21875 -66.90625 C 3.726562 -61.039062 2.484375 -54.789062 2.484375 -48.15625 C 2.484375 -41.519531 3.726562 -35.269531 6.21875 -29.40625 C 8.707031 -23.539062 12.144531 -18.414062 16.53125 -14.03125 C 20.914062 -9.65625 26.039062 -6.222656 31.90625 -3.734375 C 37.769531 -1.242188 44.019531 0 50.65625 0 C 57.289062 0 63.539062 -1.242188 69.40625 -3.734375 C 75.269531 -6.222656 80.421875 -9.65625 84.859375 -14.03125 C 89.304688 -18.414062 92.769531 -23.539062 95.25 -29.40625 C 97.738281 -35.269531 98.984375 -41.519531 98.984375 -48.15625 C 98.984375 -54.789062 97.738281 -61.039062 95.25 -66.90625 C 92.769531 -72.769531 89.304688 -77.921875 84.859375 -82.359375 C 80.421875 -86.804688 75.269531 -90.273438 69.40625 -92.765625 C 63.539062 -95.253906 57.289062 -96.5 50.65625 -96.5 Z M 35.71875 -90.640625 C 41.40625 -92.648438 47.210938 -92.554688 53.140625 -90.359375 C 59.066406 -88.171875 64.546875 -84.351562 69.578125 -78.90625 C 74.609375 -73.457031 78.488281 -66.820312 81.21875 -59 C 83.945312 -51.175781 85.070312 -43.5625 84.59375 -36.15625 C 84.125 -28.757812 82.257812 -22.332031 79 -16.875 C 75.738281 -11.425781 71.320312 -7.695312 65.75 -5.6875 C 60.1875 -3.789062 54.410156 -3.9375 48.421875 -6.125 C 42.441406 -8.320312 36.960938 -12.144531 31.984375 -17.59375 C 27.015625 -23.039062 23.109375 -29.675781 20.265625 -37.5 C 17.535156 -45.320312 16.378906 -52.929688 16.796875 -60.328125 C 17.210938 -67.734375 19.078125 -74.160156 22.390625 -79.609375 C 25.710938 -85.066406 30.15625 -88.742188 35.71875 -90.640625 Z M 35.71875 -90.640625 "/></g></g></g><g clip-path="url(#1432e95ac7)"><path fill="#41b331" d="M 266.121094 112.316406 C 249.117188 126.03125 240.421875 146.855469 229.859375 158.640625 C 162.839844 233.421875 110.136719 81.898438 266.121094 112.316406 " fill-opacity="1" fill-rule="evenodd"/></g><g clip-path="url(#e76b9ce7c6)"><path fill="#f8edd2" d="M 159.753906 181.929688 C 173.273438 163.167969 184.203125 143.167969 209.242188 131.148438 C 219.390625 126.277344 221.433594 124.453125 232.789062 121.78125 L 232.667969 121.8125 C 237.386719 121.179688 239.359375 121.589844 243.882812 121.945312 C 240.230469 122.46875 242.839844 122.222656 238.398438 122.335938 C 227.707031 122.613281 219.394531 128.222656 210.171875 132.972656 C 184.230469 146.335938 175.5625 167.011719 160.460938 187.492188 L 159.753906 181.929688 " fill-opacity="1" fill-rule="evenodd"/></g><path fill="#f8edd2" d="M 201.621094 135.539062 C 203.410156 135.296875 205.242188 135.121094 207.136719 135.015625 C 216.628906 134.480469 218.8125 133.710938 228.542969 135.285156 L 228.4375 135.269531 C 232.328125 136.296875 233.734375 137.253906 237.15625 138.988281 C 234.132812 138.21875 236.25 138.867188 232.746094 137.527344 C 224.304688 134.296875 216.003906 136 207.273438 136.738281 C 205.355469 136.902344 203.503906 137.132812 201.714844 137.425781 C 201.925781 136.808594 201.890625 136.132812 201.621094 135.539062 " fill-opacity="1" fill-rule="evenodd"/><path fill="#f8edd2" d="M 184.34375 149.167969 C 184.449219 149.164062 184.546875 149.15625 184.652344 149.148438 C 195.890625 148.515625 198.476562 147.609375 209.988281 149.472656 L 209.863281 149.453125 C 214.472656 150.667969 216.136719 151.796875 220.183594 153.851562 C 216.605469 152.945312 219.113281 153.710938 214.964844 152.121094 C 204.972656 148.300781 195.148438 150.316406 184.8125 151.191406 L 184.59375 151.210938 C 184.75 150.527344 184.664062 149.800781 184.34375 149.167969 " fill-opacity="1" fill-rule="evenodd"/><path fill="#f8edd2" d="M 212.507812 131.5 C 213.191406 130.507812 213.832031 129.492188 214.414062 128.449219 C 217.347656 123.203125 218.632812 121.976562 219.636719 116.664062 L 219.625 116.722656 C 219.648438 114.609375 219.105469 113.863281 218.34375 112.03125 C 218.292969 113.675781 218.222656 112.527344 218.59375 114.417969 C 219.484375 118.972656 215.75 123.59375 212.820312 128.421875 C 212.175781 129.484375 211.484375 130.511719 210.746094 131.503906 C 211.382812 131.371094 212.015625 131.367188 212.507812 131.5 " fill-opacity="1" fill-rule="evenodd"/><path fill="#f8edd2" d="M 190.003906 146.066406 C 190.039062 145.996094 190.082031 145.929688 190.117188 145.863281 C 194.238281 138.441406 195.898438 136.792969 197.78125 128.988281 L 197.757812 129.074219 C 198.074219 125.910156 197.542969 124.714844 196.902344 121.855469 C 196.621094 124.308594 196.695312 122.578125 196.871094 125.464844 C 197.292969 132.417969 192.328125 138.789062 188.265625 145.589844 L 188.179688 145.738281 C 188.867188 145.6875 189.515625 145.804688 190.003906 146.066406 " fill-opacity="1" fill-rule="evenodd"/></svg>